<svg xmlns="http://www.w3.org/2000/svg" width="464" height="450" viewBox="0 0 464 450">
  <path fill="#801BD8" d="M436,121 L379.496,121 L399.24,35.944 C402.744,20.848 393.8,5.656 378.896,1.4 C362.904,-3.168 346.336,6.584 342.576,22.784 L319.784,121 L188.992,121 L208.736,35.944 C212.24,20.848 203.296,5.656 188.392,1.4 C172.4,-3.168 155.832,6.584 152.072,22.784 L129.28,121 L64,121 C48.536,121 36,133.536 36,149 C36,164.464 48.536,177 64,177 L116.28,177 L93.992,273 L28,273 C12.536,273 0,285.536 0,301 C0,316.464 12.536,329 28,329 L80.992,329 L61.248,414.056 C57.744,429.152 66.688,444.344 81.592,448.6 C97.584,453.168 114.152,443.416 117.912,427.208 L140.704,329 L271.496,329 L251.752,414.056 C248.248,429.152 257.192,444.344 272.096,448.6 C288.088,453.168 304.656,443.416 308.416,427.208 L331.208,329 L396,329 C411.464,329 424,316.464 424,301 C424,285.536 411.464,273 396,273 L344.208,273 L366.496,177 L436,177 C451.464,177 464,164.464 464,149 C464,133.536 451.464,121 436,121 Z M284.496,273 L153.704,273 L175.992,177 L306.784,177 L284.496,273 Z"/>
</svg>
