<svg xmlns="http://www.w3.org/2000/svg" width="985" height="875" viewBox="0 0 985 875">
  <g fill="none" fill-rule="evenodd" transform="translate(12 12)">
    <circle cx="480.59" cy="424.48" r="89.57" fill="#00D8FF" fill-rule="nonzero"/>
    <path stroke="#00D8FF" stroke-width="24" d="M480.59,242.37 C600.84,242.37 712.59,259.63 796.79,288.63 C898.28,323.57 960.67,376.53 960.67,424.48 C960.67,474.48 894.54,530.72 785.56,566.83 C703.16,594.13 594.74,608.38 480.56,608.38 C363.56,608.38 252.69,595 169.38,566.53 C63.96,530.53 0.47,473.53 0.47,424.53 C0.47,376.96 60.04,324.42 160.11,289.53 C244.68,260 359.16,242.37 480.59,242.37 Z"/>
    <path stroke="#00D8FF" stroke-width="24" d="M322.06,334 C382.13,229.83 452.89,141.68 520.06,83.19 C601.06,12.73 678.06,-14.81 719.62,9.09 C762.91,34.09 778.62,119.45 755.45,231.9 C737.93,316.9 696.11,417.9 639.08,516.85 C580.64,618.18 513.69,707.51 447.4,765.45 C363.53,838.77 282.4,865.3 239.97,840.82 C198.77,817.05 182.97,739.19 202.77,635.08 C219.48,547.11 261.39,439.15 322.06,334 Z"/>
    <path stroke="#00D8FF" stroke-width="24" d="M322.21,517.06 C262,413 220.92,307.66 203.82,220.23 C183.21,114.9 197.82,34.36 239.28,10.33 C282.53,-14.67 364.36,14.33 450.21,90.57 C515.12,148.2 581.77,234.89 639,333.69 C697.6,435 741.55,537.59 758.65,624 C780.28,733.29 762.77,816.79 720.34,841.35 C679.18,865.18 603.85,839.95 523.53,770.83 C455.66,712.39 383.05,622.15 322.21,517.06 Z"/>
  </g>
</svg>
