<svg xmlns="http://www.w3.org/2000/svg" width="212" height="403" viewBox="0 0 212 403">
  <path fill="#FFFFFF" fill-rule="evenodd" d="M106,351 L205,351 L205,56 L106,56 L7,56 L7,351 L106,351 Z M106,364 C97.3333333,364 93,368 93,376 C93,384 97.3333333,388.333333 106,389 C114.666667,388.333333 119,384 119,376 C119,368 114.666667,364 106,364 Z M106,403 C48,403 17.3333333,403 14,403 C9,403 -0,394 0,388 C0,382 -0,33 -0,20 C-0,7 8,3 17,1 C23,-0.333333333 52.6666667,-0.333333333 106,1 C159.333333,-0.333333333 189,-0.333333333 195,1 C204,3 212,7 212,20 C212,33 212,382 212,388 C212,394 203,403 198,403 C194.666667,403 164,403 106,403 Z M106,36 C97.3333333,36 92.3333333,36 91,36 C89,36 87,37 87,39 C87,41 89,43 91,43 C92.3333333,43 97.3333333,43 106,43 C114.666667,43 119.666667,43 121,43 C123,43 125,41 125,39 C125,37 123,36 121,36 C119.666667,36 114.666667,36 106,36 Z"/>
</svg>
